<?xml version="1.0" encoding="utf-8"?>
<!-- Generator: Adobe Illustrator 27.5.0, SVG Export Plug-In . SVG Version: 6.00 Build 0)  -->
<svg version="1.1" xmlns="http://www.w3.org/2000/svg" xmlns:xlink="http://www.w3.org/1999/xlink" x="0px" y="0px"
	 viewBox="0 0 2475 1650" style="enable-background:new 0 0 2475 1650;" xml:space="preserve">
<g id="Background">
	<rect style="fill:#FFFFFF;" width="2475" height="1650"/>
</g>
<g id="Illustration">
	<g>
		<linearGradient id="SVGID_1_" gradientUnits="userSpaceOnUse" x1="133" y1="814.5399" x2="2305.4407" y2="814.5399">
			<stop  offset="0" style="stop-color:#DAE3FE"/>
			<stop  offset="1" style="stop-color:#E9EFFD"/>
		</linearGradient>
		<path style="fill:url(#SVGID_1_);" d="M487.395,198.964c-171.522,141.756,57.763,323.715-61.021,403.147
			c-118.784,79.433-582.079,622.654-24.121,791.662c488.751,148.045,429.266,206.607,782.923,12.009s316.798-175.17,607.831-43.615
			s595.219-73.121,491.796-316.035c-103.423-242.914-169.273-239.885-51.176-395.014c118.097-155.129-87.526-666.747-494.05-334.995
			s-450.782,135.927-622.689-36.582C1023.814,186.142,758.457-25.057,487.395,198.964z"/>
		<path style="fill:#BDD0FB;" d="M166.615,564.215c2.178,227.035,64.951,828.356,657.502,958.44
			c33.103,7.267,65.282-15.618,69.365-49.262c20.592-169.658,15.672-658.417-645.412-962.159
			C209.745,493.625,166.211,522.039,166.615,564.215z"/>
		<g>
			
				<linearGradient id="SVGID_00000070817003424866523090000009075651093194590594_" gradientUnits="userSpaceOnUse" x1="1226.6135" y1="967.8403" x2="1350.6129" y2="1969.84">
				<stop  offset="0" style="stop-color:#09005D"/>
				<stop  offset="1" style="stop-color:#1A0F91"/>
			</linearGradient>
			<polygon style="fill:url(#SVGID_00000070817003424866523090000009075651093194590594_);" points="1128.001,1160.143 
				1094.837,1457.576 1479.602,1457.576 1429.486,1160.143 			"/>
			
				<linearGradient id="SVGID_00000102538369294715707200000004378835095913146028_" gradientUnits="userSpaceOnUse" x1="1559.6198" y1="-104.2207" x2="1109.5745" y2="1185.9069">
				<stop  offset="0" style="stop-color:#09005D"/>
				<stop  offset="1" style="stop-color:#1A0F91"/>
			</linearGradient>
			<path style="fill:url(#SVGID_00000102538369294715707200000004378835095913146028_);" d="M481.663,427.331v681.2
				c0,56.038,44.655,101.863,100.675,103.308c248.807,6.416,1119.016,21.973,1355.864,18.481
				c40.708-0.6,73.685-33.176,74.859-73.871c4.567-158.252,11.984-538.795-15.465-715.467c-5.781-37.205-37.185-65.026-74.817-66.23
				c-208.469-6.669-1130.947-27.846-1367.684-22.529C514.265,353.14,481.663,386.491,481.663,427.331z"/>
			
				<linearGradient id="SVGID_00000083084500715768464620000006077404840994543806_" gradientUnits="userSpaceOnUse" x1="1505.821" y1="458.7243" x2="209.7858" y2="1943.3823">
				<stop  offset="0" style="stop-color:#4042E2"/>
				<stop  offset="1" style="stop-color:#4F52FF"/>
			</linearGradient>
			<path style="fill:url(#SVGID_00000083084500715768464620000006077404840994543806_);" d="M524.406,424.015v647.187
				c0,32.718,26.264,59.377,58.978,59.866l1320.742,16.317c32.434,0.485,59.02-25.609,59.141-58.047l2.21-641.405
				c0.087-23.193-18.391-42.197-41.578-42.761L571.703,377.855C545.77,377.224,524.406,398.074,524.406,424.015z"/>
			<path style="fill:#91B3FA;" d="M1973.21,1174.105c-0.011,0-0.023,0-0.035,0L524.371,1149.42c-1.12-0.02-2.012-0.943-1.993-2.062
				c0.019-1.121,0.941-2.058,2.063-1.994l1448.804,24.685c1.12,0.02,2.012,0.943,1.993,2.062
				C1975.219,1173.22,1974.314,1174.105,1973.21,1174.105z"/>
			<g>
				<path style="fill:#91B3FA;" d="M1263.101,1204.254c-9.43,0-17.103-7.672-17.103-17.101c0-9.431,7.672-17.103,17.103-17.103
					s17.102,7.672,17.102,17.103C1280.203,1196.581,1272.531,1204.254,1263.101,1204.254z M1263.101,1174.105
					c-7.194,0-13.047,5.852-13.047,13.047c0,7.193,5.852,13.045,13.047,13.045s13.046-5.852,13.046-13.045
					C1276.147,1179.957,1270.295,1174.105,1263.101,1174.105z"/>
			</g>
			<g>
				<g>
					
						<linearGradient id="SVGID_00000158738547130581356590000002261131619485816482_" gradientUnits="userSpaceOnUse" x1="1103.7144" y1="880.6043" x2="1034.7178" y2="1114.5925">
						<stop  offset="0" style="stop-color:#FE7062"/>
						<stop  offset="1" style="stop-color:#FF928E"/>
					</linearGradient>
					<path style="fill:url(#SVGID_00000158738547130581356590000002261131619485816482_);" d="M1076.825,1085.698
						c0,17.82-14.446,32.266-32.266,32.266c-17.82,0-35.39-13.509-35.39-31.329c0-17.82,17.57-33.203,35.39-33.203
						C1062.379,1053.432,1076.825,1067.878,1076.825,1085.698z"/>
					<path style="opacity:0.69;fill:#FFFFFF;" d="M1038.69,1105.544L1038.69,1105.544c-2.182-0.011-4.006-1.659-4.238-3.828
						l-2.908-27.179c-0.285-2.666,1.92-4.935,4.592-4.728l2.908,0.226c2.231,0.173,3.952,2.034,3.952,4.272v26.952
						C1042.997,1103.635,1041.065,1105.556,1038.69,1105.544z"/>
					<path style="opacity:0.69;fill:#FFFFFF;" d="M1047.926,1073.894v27.396c0,2.347,1.887,4.257,4.234,4.284l0.688,0.008
						c2.326,0.027,4.248-1.805,4.332-4.13l0.99-27.404c0.087-2.425-1.855-4.439-4.282-4.439h-1.678
						C1049.844,1069.61,1047.926,1071.528,1047.926,1073.894z"/>
					<g>
						
							<linearGradient id="SVGID_00000013158446157078061770000010031221101720409733_" gradientUnits="userSpaceOnUse" x1="1173.5883" y1="901.2081" x2="1104.5918" y2="1135.1962">
							<stop  offset="0" style="stop-color:#FE7062"/>
							<stop  offset="1" style="stop-color:#FF928E"/>
						</linearGradient>
						<path style="fill:url(#SVGID_00000013158446157078061770000010031221101720409733_);" d="M1144.782,1085.698
							c0,13.58-11.008,24.588-24.588,24.588s-26.968-10.294-26.968-23.874c0-13.579,13.389-25.302,26.968-25.302
							S1144.782,1072.118,1144.782,1085.698z"/>
						<path style="opacity:0.69;fill:#FFFFFF;" d="M1110.007,1075.109v21.903c0,1.876,1.509,3.403,3.385,3.425l0.55,0.006
							c1.859,0.022,3.397-1.443,3.464-3.302l0.791-21.91c0.07-1.939-1.483-3.549-3.423-3.549h-1.342
							C1111.54,1071.684,1110.007,1073.217,1110.007,1075.109z"/>
						<path style="opacity:0.69;fill:#FFFFFF;" d="M1123.183,1074.376l-1.164,22.926c-0.086,1.692,1.97,2.588,3.152,1.374
							l11.091-11.406c0.663-0.682,0.696-1.759,0.074-2.479l-9.927-11.52C1125.327,1072.015,1123.267,1072.721,1123.183,1074.376z"/>
					</g>
					<g>
						
							<linearGradient id="SVGID_00000102527898518363712980000000528625733462343592_" gradientUnits="userSpaceOnUse" x1="-5877.1143" y1="-49.6659" x2="-5946.1104" y2="184.322" gradientTransform="matrix(-1 0 0 1 -5240.9478 0)">
							<stop  offset="0" style="stop-color:#FE7062"/>
							<stop  offset="1" style="stop-color:#FF928E"/>
						</linearGradient>
						<path style="fill:url(#SVGID_00000102527898518363712980000000528625733462343592_);" d="M945.359,1085.698
							c0,13.58,11.008,24.588,24.588,24.588c13.58,0,26.968-10.294,26.968-23.874c0-13.579-13.389-25.302-26.968-25.302
							C956.367,1061.11,945.359,1072.118,945.359,1085.698z"/>
						<path style="opacity:0.69;fill:#FFFFFF;" d="M980.134,1075.109v21.903c0,1.876-1.509,3.403-3.385,3.425l-0.55,0.006
							c-1.859,0.022-3.397-1.443-3.464-3.302l-0.792-21.91c-0.07-1.939,1.483-3.549,3.423-3.549h1.342
							C978.6,1071.684,980.134,1073.217,980.134,1075.109z"/>
						<path style="opacity:0.69;fill:#FFFFFF;" d="M966.958,1074.376l1.164,22.926c0.086,1.692-1.97,2.588-3.151,1.374
							l-11.091-11.406c-0.664-0.682-0.696-1.759-0.075-2.479l9.927-11.52C964.814,1072.015,966.874,1072.721,966.958,1074.376z"/>
					</g>
					<g>
						<path style="fill:#7D97F4;" d="M615.789,1015.684l0.85,8.476c0.779,7.767,7.315,13.681,15.121,13.681h821.335
							c8.393,0,15.197-6.804,15.197-15.197l0,0c0-8.332-6.709-15.111-15.04-15.196l-822.185-8.476
							C622.012,998.879,614.886,1006.675,615.789,1015.684z"/>
						
							<linearGradient id="SVGID_00000048462226669659343950000006701466030011148702_" gradientUnits="userSpaceOnUse" x1="615.7119" y1="1018.4067" x2="1142.8353" y2="1018.4067">
							<stop  offset="0" style="stop-color:#FE7062"/>
							<stop  offset="1" style="stop-color:#FF928E"/>
						</linearGradient>
						<path style="fill:url(#SVGID_00000048462226669659343950000006701466030011148702_);" d="M1141.419,1028.116
							c-0.961-7.893-2.14-15.887-3.27-23.916l-507.081-5.228c-9.055-0.093-16.182,7.703-15.278,16.712l0.849,8.476
							c0.779,7.767,7.315,13.681,15.121,13.681h511.076C1142.298,1034.435,1141.789,1031.16,1141.419,1028.116z"/>
						<path style="fill:#BDD0FB;" d="M1172.963,1020.241c0,15.176-12.303,27.479-27.48,27.479c-15.176,0-27.48-12.303-27.48-27.479
							c0-15.177,12.303-27.48,27.48-27.48C1160.66,992.761,1172.963,1005.064,1172.963,1020.241z"/>
					</g>
				</g>
				<g>
					<path style="fill:#7D97F4;" d="M569.291,513.256l14.97,381.741c1.431,36.486,30.846,65.646,67.343,66.759L1450,986.108
						c37.655,1.148,69.373-27.906,71.522-65.518l24.291-425.091c2.315-40.51-30.413-74.384-70.979-73.464l-837.656,18.998
						C598.346,441.914,567.769,474.444,569.291,513.256z"/>
					<g>
						<defs>
							<path id="SVGID_00000129171979481605200550000014145974466955185579_" d="M511.766,300.675l-261.613,407.63l99.373,229.165
								c1.431,36.486,265.583,23.171,302.08,24.285L1450,986.108c37.655,1.148,69.373-27.906,71.522-65.518l24.291-652.229
								c2.315-40.51-30.413-74.384-70.979-73.464l-786.631-84.856C649.371,110.923,510.244,261.863,511.766,300.675z"/>
						</defs>
						<clipPath id="SVGID_00000177477598274377897140000007371909853075372180_">
							<use xlink:href="#SVGID_00000129171979481605200550000014145974466955185579_"  style="overflow:visible;"/>
						</clipPath>
						<g style="clip-path:url(#SVGID_00000177477598274377897140000007371909853075372180_);">
							
								<linearGradient id="SVGID_00000129181600255655559530000000118962947995245965_" gradientUnits="userSpaceOnUse" x1="1431.2445" y1="280.7004" x2="-509.3163" y2="1937.639">
								<stop  offset="0" style="stop-color:#FF928E"/>
								<stop  offset="1" style="stop-color:#FEB3B1"/>
							</linearGradient>
							<path style="fill:url(#SVGID_00000129181600255655559530000000118962947995245965_);" d="M898.289,567.247
								c0,0,185.55,52.656,278.324-12.537c92.775-65.193,120.007-211.245,120.007-211.245l36.768,12.641
								c0,0,1.192,193.589-124.179,281.349c-125.371,87.76-253.25,52.656-253.25,52.656L898.289,567.247z"/>
							
								<linearGradient id="SVGID_00000013872766657225703240000012094317391129786283_" gradientUnits="userSpaceOnUse" x1="271.5264" y1="980.4959" x2="1017.4362" y2="270.3791">
								<stop  offset="0" style="stop-color:#09005D"/>
								<stop  offset="1" style="stop-color:#1A0F91"/>
							</linearGradient>
							<path style="fill:url(#SVGID_00000013872766657225703240000012094317391129786283_);" d="M963.127,570.409
								c-13.949-22.217-37.889-36.571-52.54-58.332c-18.455-27.412-19.662-64.085-8.36-95.137
								c9.377-25.765,26.458-48.156,36.031-73.849c12.883-34.581,42.199-48.14,35.521-82.539
								c-5.881-30.299-46.841-66.091-76.29-83.048c-36.426-20.975-81.365-22.412-122.536-13.946
								c-42.735,8.788-83.927,28.11-114.797,58.941c-30.871,30.83-50.628,73.708-49.405,117.32
								c0.828,29.506,10.815,59.774,1.807,87.884c-7.004,21.858-25.843,39.518-48.108,45.096
								c-24.746,6.199-50.698-1.875-76.198-1.132c-25.275,0.737-50.193,10.514-69.225,27.16
								c-16.858,14.747-29.198,35.248-31.722,57.503c-2.525,22.256,5.595,46.024,22.901,60.243
								c11.834,9.724,28.371,16.172,32.918,30.798c5.087,16.366-8.799,33.113-24.473,40.044
								c-15.674,6.931-33.422,7.79-49.385,14.026c-35.714,13.951-56.831,54.794-53.408,92.984
								c3.422,38.189,28.168,72.409,60.238,93.424c32.07,21.015,70.728,30.06,108.989,32.56c38.261,2.498,76.614-1.165,114.88-3.586
								c43.769-2.77,88.433-4.066,129.745-18.787c41.777-14.887,77.634-42.656,111.014-71.856
								c15.805-13.825,31.817-28.93,38.692-48.771c4.992-14.407,4.76-30.319,10.539-44.428
								c12.401-30.277,47.923-43.634,68.18-69.328C978.672,637.604,980.766,598.503,963.127,570.409z"/>
							
								<linearGradient id="SVGID_00000124878051676394381690000013391089249179579301_" gradientUnits="userSpaceOnUse" x1="857.4295" y1="740.8182" x2="630.0891" y2="1220.5725">
								<stop  offset="0" style="stop-color:#FE7062"/>
								<stop  offset="1" style="stop-color:#FF928E"/>
							</linearGradient>
							<path style="fill:url(#SVGID_00000124878051676394381690000013391089249179579301_);" d="M901.042,553.608
								c-31.611-9.476-123.651-26.973-211.197,53.818c-14.848,13.702-20.916,34.522-15.62,54.02
								c23.514,86.569,85.554,342.332,31.156,452.996c0,0,95.864,105.676,200.447,20.503c0,0,46.924-204.51,108.384-294.29
								c42.433-61.983-67.661-232.757-95.516-274.015C914.477,560.395,908.261,555.773,901.042,553.608z"/>
							
								<linearGradient id="SVGID_00000056410644426116422270000016777916481307256997_" gradientUnits="userSpaceOnUse" x1="851.7182" y1="380.5022" x2="787.7184" y2="599.502">
								<stop  offset="0" style="stop-color:#FF928E"/>
								<stop  offset="1" style="stop-color:#FEB3B1"/>
							</linearGradient>
							<path style="fill:url(#SVGID_00000056410644426116422270000016777916481307256997_);" d="M788.303,388.54
								c0,0-21.295,127.269-24.665,184.147c0,0,50.259,22.953,97.561-15.67c0,0,4.852-128.78,12.009-151.834L788.303,388.54z"/>
							
								<linearGradient id="SVGID_00000052067543982702070930000006195018610111103638_" gradientUnits="userSpaceOnUse" x1="-1823.4403" y1="-355.1655" x2="-1700.4401" y2="-53.1647" gradientTransform="matrix(-0.9955 -0.0955 -0.0955 0.9955 -824.9617 284.307)">
								<stop  offset="0" style="stop-color:#FF928E"/>
								<stop  offset="1" style="stop-color:#FEB3B1"/>
							</linearGradient>
							<path style="fill:url(#SVGID_00000052067543982702070930000006195018610111103638_);" d="M942.257,288.964
								c0,0,50.331,204.208-35.962,223.359c-86.292,19.152-122.198-126.024-122.198-126.024s8.274-97.514,47.588-116.063
								C870.999,251.685,942.257,288.964,942.257,288.964z"/>
							
								<linearGradient id="SVGID_00000018223827547689448730000015682941878467807416_" gradientUnits="userSpaceOnUse" x1="460.123" y1="2651.0359" x2="1024.5297" y2="1654.7371" gradientTransform="matrix(1 -0.0095 0.0095 1 -15.1457 51.0736)">
								<stop  offset="0" style="stop-color:#FF928E"/>
								<stop  offset="1" style="stop-color:#FEB3B1"/>
							</linearGradient>
							<path style="fill:url(#SVGID_00000018223827547689448730000015682941878467807416_);" d="M1027.916,1564.334
								c-0.36,9.284,15.941,82.926,24.813,122.207c3.57,15.804,1.084,32.346-6.963,46.408l-307.232,517.087
								c-3.717,6.255-6.422,13.031-8.067,20.117c-5.63,24.266-17.308,83.735-11.211,137.837l15.894,33.01l-68.738-15.607
								L651.456,2240.8l19.459-11.866c16.811-10.25,29.902-25.573,37.397-43.781c27.781-67.482,96.769-239.258,114.552-322.972
								c20.209-95.141,125.862-172.417,125.862-172.417l-18.561-43.882L1027.916,1564.334z"/>
							
								<linearGradient id="SVGID_00000080910620900441357460000001344691133063589548_" gradientUnits="userSpaceOnUse" x1="583.1594" y1="2298.7876" x2="748.1368" y2="2298.7876" gradientTransform="matrix(1 -0.0095 0.0095 1 -15.1457 51.0736)">
								<stop  offset="0" style="stop-color:#09005D"/>
								<stop  offset="1" style="stop-color:#1A0F91"/>
							</linearGradient>
							<path style="fill:url(#SVGID_00000080910620900441357460000001344691133063589548_);" d="M590.019,2361.874
								c0,0,37.12-58.85,41.487-81.757c4.367-22.908,16.525-63.36,39.41-51.182c0,0,10.785,111.28,7.067,154.761
								c-3.718,43.481,49.154,42.083,49.154,42.083s14.572,2.048,25.242,12.717c7.369,7.367,2.099,20.148-8.298,20.818
								c-17.301,1.115-44.784,1.407-73.64-4.168c-10.085-1.95-17.561-10.531-18.172-20.784l-7.618-128.074l-46.823,59.123
								L590.019,2361.874z"/>
							
								<linearGradient id="SVGID_00000060747047637494476580000007599554740019018163_" gradientUnits="userSpaceOnUse" x1="1099.7338" y1="1913.9996" x2="255.6431" y2="2183.9126" gradientTransform="matrix(1 -0.0095 0.0095 1 -15.1457 51.0736)">
								<stop  offset="0" style="stop-color:#FF928E"/>
								<stop  offset="1" style="stop-color:#FEB3B1"/>
							</linearGradient>
							<path style="fill:url(#SVGID_00000060747047637494476580000007599554740019018163_);" d="M844.38,1646.701
								c0,0-10.835,462.531-12.303,528.222c-1.467,65.691,10.373,211.269,76.227,254.784l-28.655,21.216
								c0,0-35.811-30.438-70.797-89.016c-39.302-65.805-51.187-77.828-51.187-77.828l13.042-26.708
								c5.71-11.693,7.388-24.92,4.758-37.664c-14.21-68.876-61.686-297.969-74.636-347.306
								c-15.287-58.238-16.374-136.009,36.809-201.109C790.82,1606.192,844.38,1646.701,844.38,1646.701z"/>
							
								<linearGradient id="SVGID_00000084489742306605310870000012635964999415386765_" gradientUnits="userSpaceOnUse" x1="736.1149" y1="2328.584" x2="932.7841" y2="2328.584" gradientTransform="matrix(1 -0.0095 0.0095 1 -15.1457 51.0736)">
								<stop  offset="0" style="stop-color:#09005D"/>
								<stop  offset="1" style="stop-color:#1A0F91"/>
							</linearGradient>
							<path style="fill:url(#SVGID_00000084489742306605310870000012635964999415386765_);" d="M783.568,2471.768
								c-2.043,0.019-3.779-1.443-4.067-3.467c-2.193-15.42-11.314-77.241-18.781-93.248c-8.552-18.333-36.486-95.494,0.016-102.044
								c0,0,90.744,132.578,108.164,150.453c17.42,17.876,39.404,6.245,39.404,6.245s16.972,5.014,29.772,21.371
								c6.091,7.785,0.417,19.212-9.468,19.307l-61.122,0.583c-17.751,0.169-33.716-10.615-40.315-27.094
								c-10.759-26.872-29.241-66.289-50.781-83.776l11.193,107.174C787.831,2469.659,785.97,2471.744,783.568,2471.768
								L783.568,2471.768z"/>
							
								<linearGradient id="SVGID_00000083077166740415087330000004670958620770504116_" gradientUnits="userSpaceOnUse" x1="1004.6583" y1="1005.9086" x2="533.5001" y2="2056.1995" gradientTransform="matrix(1 -0.0095 0.0095 1 -15.1457 51.0736)">
								<stop  offset="0" style="stop-color:#53D8FF"/>
								<stop  offset="1" style="stop-color:#3840F7"/>
							</linearGradient>
							<path style="fill:url(#SVGID_00000083077166740415087330000004670958620770504116_);" d="M920.294,1085.075
								c0,0-13.773,43.902,7.386,116.211l131.264,458.38c2.062,7.203-1.825,14.741-8.876,17.271
								c-39.263,14.092-168.336,53.922-344.53,41.776c-8.871-0.612-16.309-6.893-18.239-15.574
								c-11.61-52.256-51.221-230.552-59.377-267.186c-31.076-139.591-65.776-290.13,86.874-381.156
								C785.148,1084.929,850.763,1102.691,920.294,1085.075z"/>
							
								<linearGradient id="SVGID_00000152955704830530258200000011635761509093037442_" gradientUnits="userSpaceOnUse" x1="1102.5531" y1="440.594" x2="841.1849" y2="761.9095">
								<stop  offset="0" style="stop-color:#FF928E"/>
								<stop  offset="1" style="stop-color:#FEB3B1"/>
							</linearGradient>
							<path style="fill:url(#SVGID_00000152955704830530258200000011635761509093037442_);" d="M1005.76,559.777
								c-0.046-0.061-0.095-0.127-0.147-0.196C1005.66,559.643,1005.712,559.713,1005.76,559.777z"/>
							
								<linearGradient id="SVGID_00000099656919564997810220000006635969571125050046_" gradientUnits="userSpaceOnUse" x1="1099.3285" y1="437.7251" x2="837.6357" y2="759.4396">
								<stop  offset="0" style="stop-color:#FF928E"/>
								<stop  offset="1" style="stop-color:#FEB3B1"/>
							</linearGradient>
							<path style="fill:url(#SVGID_00000099656919564997810220000006635969571125050046_);" d="M1004.526,558.132
								c-1.118-1.491-2.116-2.822-3.013-4.017C1002.628,555.601,1003.691,557.019,1004.526,558.132z"/>
							
								<linearGradient id="SVGID_00000129905586278949001210000012719322700554794391_" gradientUnits="userSpaceOnUse" x1="1101.429" y1="439.2791" x2="839.5316" y2="761.2452">
								<stop  offset="0" style="stop-color:#FF928E"/>
								<stop  offset="1" style="stop-color:#FEB3B1"/>
							</linearGradient>
							<path style="fill:url(#SVGID_00000129905586278949001210000012719322700554794391_);" d="M1004.741,558.419
								c-0.07-0.094-0.141-0.189-0.215-0.287C1004.596,558.226,1004.67,558.325,1004.741,558.419z"/>
							
								<linearGradient id="SVGID_00000062908554894951319610000005828008938766031008_" gradientUnits="userSpaceOnUse" x1="1102.0697" y1="439.8834" x2="840.2822" y2="761.7143">
								<stop  offset="0" style="stop-color:#FF928E"/>
								<stop  offset="1" style="stop-color:#FEB3B1"/>
							</linearGradient>
							<path style="fill:url(#SVGID_00000062908554894951319610000005828008938766031008_);" d="M1005.612,559.581
								c-0.301-0.402-0.585-0.78-0.871-1.161C1005.082,558.873,1005.377,559.266,1005.612,559.581z"/>
							
								<linearGradient id="SVGID_00000002344994559592153240000016097888018446784903_" gradientUnits="userSpaceOnUse" x1="1103.0216" y1="440.7471" x2="841.3524" y2="762.4327">
								<stop  offset="0" style="stop-color:#FF928E"/>
								<stop  offset="1" style="stop-color:#FEB3B1"/>
							</linearGradient>
							<path style="fill:url(#SVGID_00000002344994559592153240000016097888018446784903_);" d="M1006.181,560.339
								c-0.14-0.186-0.285-0.379-0.422-0.562C1005.968,560.055,1006.113,560.248,1006.181,560.339z"/>
							
								<linearGradient id="SVGID_00000051341549657969865170000002471045067547389630_" gradientUnits="userSpaceOnUse" x1="1020.5898" y1="542.7347" x2="991.8611" y2="578.0526">
								<stop  offset="0" style="stop-color:#FF928E"/>
								<stop  offset="1" style="stop-color:#FEB3B1"/>
							</linearGradient>
							<path style="fill:url(#SVGID_00000051341549657969865170000002471045067547389630_);" d="M1006.231,560.406L1006.231,560.406
								c-0.005-0.007-0.01-0.013-0.015-0.02C1006.222,560.394,1006.231,560.406,1006.231,560.406z"/>
							
								<linearGradient id="SVGID_00000080916885224826294030000013783414247083605418_" gradientUnits="userSpaceOnUse" x1="1103.7573" y1="440.4277" x2="1030.4802" y2="530.5117">
								<stop  offset="0" style="stop-color:#FF928E"/>
								<stop  offset="1" style="stop-color:#FEB3B1"/>
							</linearGradient>
							<path style="fill:url(#SVGID_00000080916885224826294030000013783414247083605418_);" d="M1006.216,560.386
								c-0.008-0.01-0.019-0.026-0.035-0.047C1006.193,560.355,1006.205,560.371,1006.216,560.386z"/>
							
								<linearGradient id="SVGID_00000039111381950912494460000009563523101089558146_" gradientUnits="userSpaceOnUse" x1="1089.5121" y1="429.5833" x2="827.6068" y2="751.5591">
								<stop  offset="0" style="stop-color:#FF928E"/>
								<stop  offset="1" style="stop-color:#FEB3B1"/>
							</linearGradient>
							<path style="fill:url(#SVGID_00000039111381950912494460000009563523101089558146_);" d="M995.323,545.861
								C994.783,545.141,994.854,545.236,995.323,545.861L995.323,545.861z"/>
							
								<linearGradient id="SVGID_00000116201950341616789460000013646577590896884131_" gradientUnits="userSpaceOnUse" x1="1089.816" y1="430.1206" x2="828.3045" y2="751.6123">
								<stop  offset="0" style="stop-color:#FF928E"/>
								<stop  offset="1" style="stop-color:#FEB3B1"/>
							</linearGradient>
							<path style="fill:url(#SVGID_00000116201950341616789460000013646577590896884131_);" d="M995.655,546.304
								c-0.127-0.169-0.236-0.315-0.332-0.443C995.416,545.986,995.524,546.129,995.655,546.304z"/>
							
								<linearGradient id="SVGID_00000076564901671405699980000015733990584590622111_" gradientUnits="userSpaceOnUse" x1="1096.7971" y1="435.4518" x2="834.8178" y2="757.5185">
								<stop  offset="0" style="stop-color:#FF928E"/>
								<stop  offset="1" style="stop-color:#FEB3B1"/>
							</linearGradient>
							<path style="fill:url(#SVGID_00000076564901671405699980000015733990584590622111_);" d="M1001.253,553.769
								c-0.233-0.31-0.453-0.604-0.671-0.894C1000.807,553.174,1001.03,553.472,1001.253,553.769z"/>
							
								<linearGradient id="SVGID_00000176014426954310630490000017742758377544330429_" gradientUnits="userSpaceOnUse" x1="1093.046" y1="432.5937" x2="831.3253" y2="754.3426">
								<stop  offset="0" style="stop-color:#FF928E"/>
								<stop  offset="1" style="stop-color:#FEB3B1"/>
							</linearGradient>
							<path style="fill:url(#SVGID_00000176014426954310630490000017742758377544330429_);" d="M1000.352,552.567
								c-2.424-3.233-3.911-5.215-4.697-6.263C996.631,547.606,998.474,550.062,1000.352,552.567z"/>
							
								<linearGradient id="SVGID_00000084492398213370652770000003555474928142414986_" gradientUnits="userSpaceOnUse" x1="1097.0936" y1="436.2793" x2="835.8979" y2="757.3827">
								<stop  offset="0" style="stop-color:#FF928E"/>
								<stop  offset="1" style="stop-color:#FEB3B1"/>
							</linearGradient>
							<path style="fill:url(#SVGID_00000084492398213370652770000003555474928142414986_);" d="M1001.513,554.115
								c-0.086-0.115-0.173-0.231-0.26-0.346C1001.337,553.88,1001.427,554.001,1001.513,554.115z"/>
							
								<linearGradient id="SVGID_00000006675118474039872780000000752409470087311032_" gradientUnits="userSpaceOnUse" x1="1096.0682" y1="435.1928" x2="834.5359" y2="756.71">
								<stop  offset="0" style="stop-color:#FF928E"/>
								<stop  offset="1" style="stop-color:#FEB3B1"/>
							</linearGradient>
							<path style="fill:url(#SVGID_00000006675118474039872780000000752409470087311032_);" d="M1000.583,552.875
								c-0.077-0.103-0.154-0.205-0.231-0.308C1000.426,552.666,1000.506,552.772,1000.583,552.875z"/>
							
								<linearGradient id="SVGID_00000041988114411408322690000007358183962732131229_" gradientUnits="userSpaceOnUse" x1="344.3911" y1="772.7729" x2="941.4509" y2="204.3634">
								<stop  offset="0" style="stop-color:#09005D"/>
								<stop  offset="1" style="stop-color:#1A0F91"/>
							</linearGradient>
							<path style="fill:url(#SVGID_00000041988114411408322690000007358183962732131229_);" d="M755.366,341.578
								c0,0,47.844-5.693,45.235,29.75c0,0,37.51-12.198,19.958-47.302c-17.552-35.104,37.611-42.626,124.918-20.377
								c33.559,8.552,39.009-58.896-24.621-84.935C857.226,192.675,757.873,193.64,755.366,341.578z"/>
							
								<linearGradient id="SVGID_00000112594490797277677430000016054965636215560603_" gradientUnits="userSpaceOnUse" x1="-1735.5776" y1="-390.9503" x2="-1612.5776" y2="-88.95" gradientTransform="matrix(-0.9955 -0.0955 -0.0955 0.9955 -824.9617 284.307)">
								<stop  offset="0" style="stop-color:#FF928E"/>
								<stop  offset="1" style="stop-color:#FEB3B1"/>
							</linearGradient>
							<path style="fill:url(#SVGID_00000112594490797277677430000016054965636215560603_);" d="M810.778,383.366
								c0,0-23.838-68.812-54.715-42.426c-30.877,26.386,16.538,74.295,42.93,65.81L810.778,383.366z"/>
							<g>
								
									<linearGradient id="SVGID_00000064341436147069252850000007027159337105931409_" gradientUnits="userSpaceOnUse" x1="88.868" y1="646.4365" x2="309.8725" y2="1339.7246" gradientTransform="matrix(-1 0 0 1 1406.8064 0)">
									<stop  offset="0" style="stop-color:#FE7062"/>
									<stop  offset="1" style="stop-color:#FF928E"/>
								</linearGradient>
								<path style="fill:url(#SVGID_00000064341436147069252850000007027159337105931409_);" d="M1433.362,458.874l-249.026-15.693
									c-22.705-1.431-42.624,15.005-45.53,37.57l-55.766,331.184c-3.324,25.817,16.785,48.681,42.815,48.681h324.937
									c24.658,0,44.307-20.62,43.118-45.249l-20.146-315.49C1472.704,477.913,1455.306,460.257,1433.362,458.874z"/>
								
									<linearGradient id="SVGID_00000181049603099999224950000006316134790427013557_" gradientUnits="userSpaceOnUse" x1="101.2508" y1="534.8649" x2="155.0098" y2="991.8187" gradientTransform="matrix(-1 0 0 1 1406.8064 0)">
									<stop  offset="0" style="stop-color:#FE7062"/>
									<stop  offset="1" style="stop-color:#FF928E"/>
								</linearGradient>
								<path style="fill:url(#SVGID_00000181049603099999224950000006316134790427013557_);" d="M1396.645,502.877
									c4.3,0,7.872-3.392,8.05-7.728c0.234-5.56,4.617-136.378-87.45-150.768c-19.698-3.061-37.172,1.554-51.945,13.76
									c-44.821,37.044-48.609,132.357-48.748,136.393c-0.155,4.452,3.328,8.179,7.778,8.337c4.42,0.068,8.184-3.328,8.339-7.78
									c0.032-0.914,3.68-92.121,42.921-124.529c11.206-9.261,24.027-12.595,39.167-10.243
									c78.001,12.185,73.877,132.939,73.827,134.157c-0.186,4.452,3.271,8.206,7.72,8.395
									C1396.419,502.877,1396.532,502.877,1396.645,502.877z"/>
							</g>
							
								<linearGradient id="SVGID_00000135670744582723328490000000519361925338383278_" gradientUnits="userSpaceOnUse" x1="1121.0579" y1="452.1616" x2="1003.0577" y2="618.1617">
								<stop  offset="0" style="stop-color:#FF928E"/>
								<stop  offset="1" style="stop-color:#FEB3B1"/>
							</linearGradient>
							<path style="fill:url(#SVGID_00000135670744582723328490000000519361925338383278_);" d="M754.67,669.698
								c-0.007-0.059-0.04-0.366-0.035-0.219l-0.001,0.269c-0.004,0.162-0.004,0.359,0.011,0.649l0.074,1.624
								c0.062,1.155,0.151,2.371,0.268,3.643c0.215,2.511,0.51,5.135,0.859,7.776c0.722,5.289,1.587,10.68,2.724,16.05
								c2.173,10.764,5.208,21.443,8.85,31.84c7.374,20.762,17.337,40.506,30.293,57.868c6.474,8.678,13.483,16.974,21.284,24.517
								c1.888,1.954,3.994,3.668,5.975,5.534l3.012,2.757l3.175,2.572c2.136,1.695,4.198,3.493,6.387,5.136l6.675,4.814
								c9.072,6.21,18.577,12.01,28.769,16.818c2.552,1.193,5.019,2.552,7.643,3.635l7.875,3.278
								c1.312,0.537,2.632,1.132,3.937,1.628l3.891,1.331l7.789,2.719c10.504,2.984,21.15,5.721,32.031,6.802
								c5.418,0.878,10.899,0.912,16.39,1.298c2.748,0.1,5.503-0.046,8.265-0.039l4.147-0.031c1.383-0.064,2.764-0.208,4.149-0.304
								c22.163-1.37,44.557-6.929,66.245-15.778c10.879-4.332,21.519-9.672,31.947-15.564c10.426-5.906,20.616-12.466,30.488-19.599
								c9.869-7.135,19.425-14.84,28.57-23.001c4.579-4.075,9.043-8.27,13.39-12.543c2.147-2.149,4.289-4.302,6.352-6.474
								l3.04-3.243l3.8-4.201c9.279-10.257,25.117-11.051,35.375-1.77c9.711,8.785,10.876,23.528,3.106,33.768l-3.595,4.709
								l-3.383,4.231c-2.255,2.779-4.545,5.476-6.846,8.164c-4.629,5.323-9.361,10.519-14.227,15.581
								c-9.719,10.136-19.942,19.787-30.708,28.931c-10.766,9.138-22.077,17.758-33.943,25.766
								c-11.871,7.992-24.25,15.466-37.337,21.934c-26.025,13.087-54.617,22.866-84.744,27.169
								c-1.878,0.279-3.752,0.599-5.639,0.836l-5.692,0.532c-3.8,0.315-7.599,0.762-11.417,0.935
								c-7.645,0.165-15.325,0.583-22.991,0.05c-15.39-0.391-30.618-2.862-45.645-5.977l-11.112-2.87l-5.56-1.464
								c-1.813-0.531-3.555-1.135-5.336-1.703l-10.638-3.488c-3.547-1.172-7.013-2.665-10.525-3.997
								c-14.045-5.366-27.703-12.165-40.943-19.804l-9.821-5.974c-3.238-2.056-6.361-4.305-9.544-6.466l-4.744-3.295l-4.581-3.523
								c-3.024-2.389-6.166-4.651-9.083-7.178c-11.924-9.84-22.906-20.816-33.086-32.447
								c-20.403-23.305-36.585-49.858-49.028-77.721c-6.183-13.971-11.486-28.282-15.723-43.007
								c-2.165-7.35-4.015-14.826-5.677-22.456c-0.82-3.825-1.576-7.688-2.253-11.686c-0.342-1.981-0.665-4.023-0.962-6.134
								l-0.435-3.277l-0.209-1.805l-0.224-2.407c-1.579-27.313,19.281-50.734,46.593-52.313
								C729.669,621.526,753.09,642.386,754.67,669.698z"/>
							
								<linearGradient id="SVGID_00000050662524901063605070000009797880520462923921_" gradientUnits="userSpaceOnUse" x1="1355.7666" y1="619.0026" x2="1237.7662" y2="785.003">
								<stop  offset="0" style="stop-color:#FF928E"/>
								<stop  offset="1" style="stop-color:#FEB3B1"/>
							</linearGradient>
							<path style="fill:url(#SVGID_00000050662524901063605070000009797880520462923921_);" d="M1151.04,797.506
								c0,0-17.805-26.708,22.257-46.739c40.062-20.031,71.221-55.641,71.221-55.641s24.482,24.482-24.482,55.641
								c0,0,64.544,28.934,111.283,13.354C1378.057,748.541,1309.062,853.147,1151.04,797.506z"/>
							
								<linearGradient id="SVGID_00000047780891296010743460000005038636132263429306_" gradientUnits="userSpaceOnUse" x1="1326.5758" y1="171.9998" x2="1326.5758" y2="223.9998">
								<stop  offset="0" style="stop-color:#FF928E"/>
								<stop  offset="1" style="stop-color:#FEB3B1"/>
							</linearGradient>
							<path style="fill:url(#SVGID_00000047780891296010743460000005038636132263429306_);" d="M1279.254,349.252
								c0,0,7.686-20.211,37.775-25.226c30.089-5.015,37.612,10.03,52.656,27.582c15.044,17.552-15.045,55.163-15.045,55.163
								s-45.134-7.522-45.134-17.552c0-10.03,5.015-25.074,5.015-25.074S1294.135,339.375,1279.254,349.252z"/>
							<path style="fill:#91B3FA;" d="M488.577,631.78c-18.065-3.024-34.153-15.959-40.986-32.953
								c-6.834-16.993-4.178-37.463,6.764-52.152c16.271-21.839,45.506-27.905,74.058-32.246l51.848-7.884
								c29.323-4.458,59.338-10.657,75.926-32.694c17.69-23.502,13.584-55.085,9.614-85.63c-0.454-3.492-0.903-6.955-1.316-10.376
								c-5.242-43.497-1.293-81.445,11.737-112.792c15.886-38.211,46.182-66.623,81.04-75.999l0.527,1.957
								c-34.255,9.215-64.048,37.186-79.693,74.823c-12.896,31.018-16.797,68.624-11.597,111.77
								c0.411,3.414,0.861,6.87,1.313,10.356c4.022,30.947,8.181,62.95-10.005,87.111c-17.046,22.647-47.505,28.957-77.241,33.478
								l-51.848,7.884c-28.135,4.278-56.926,10.231-72.737,31.454c-10.529,14.135-13.084,33.833-6.509,50.183
								c6.575,16.353,22.057,28.8,39.439,31.71L488.577,631.78z"/>
							<path style="fill:#91B3FA;" d="M504.178,613.991c-6.344-5.753-13.535-12.275-17.812-20.504
								c-3.792-7.29-5.823-18.139-0.15-26.717c3.902-5.902,10.461-9.17,16.303-11.77c15.644-6.955,32.119-12.016,48.969-15.042
								c10.985-1.973,22.273-3.095,33.191-4.181c14.197-1.414,28.878-2.874,42.947-6.219c16.978-4.036,47.392-14.857,60.337-41.994
								c10.454-21.916,6.102-45.82,1.494-71.127c-3.667-20.145-7.46-40.978-3.078-60.737l1.98,0.44
								c-4.294,19.359-0.539,39.986,3.093,59.933c4.462,24.51,9.077,49.857-1.66,72.363c-13.309,27.899-44.369,38.976-61.698,43.095
								c-14.202,3.377-28.951,4.844-43.215,6.264c-10.878,1.081-22.127,2.2-33.033,4.159c-16.69,2.996-33.01,8.009-48.504,14.899
								c-5.58,2.482-11.834,5.587-15.436,11.033c-4.274,6.464-4.173,16.145,0.257,24.665c4.111,7.906,10.854,14.022,17.376,19.938
								L504.178,613.991z"/>
						</g>
					</g>
				</g>
				<g>
					<path style="fill:#7D97F4;" d="M1620.093,487.908c-0.743,31.879-6.819,133.991,8.704,155.837
						c21.972,30.923,206.698,16.275,251.862,4.069c45.164-12.206,23.192-126.948,18.31-159.906
						c-4.883-32.958-96.179-34.179-163.442-32.958C1668.264,456.171,1620.747,459.833,1620.093,487.908z"/>
					<path style="fill:#BDD0FB;" d="M1892.577,540.134c-0.951,0-1.771-0.714-1.88-1.681c-1.555-13.781-3.549-26.419-5.005-35.647
						l-0.591-3.762c-0.162-1.033,0.545-2.003,1.579-2.164c1.024-0.156,2.003,0.544,2.164,1.579l0.591,3.756
						c1.461,9.263,3.463,21.948,5.028,35.812c0.118,1.04-0.63,1.977-1.67,2.095C1892.72,540.13,1892.648,540.134,1892.577,540.134z"
						/>
					<path style="fill:#BDD0FB;" d="M1836.446,647.363c-0.934,0-1.747-0.691-1.875-1.643c-0.138-1.037,0.589-1.99,1.626-2.129
						c14.272-1.91,25.693-3.968,33.028-5.95c17.861-4.827,25.793-29.751,23.576-74.079c-0.052-1.044,0.752-1.934,1.797-1.986
						c0.999-0.032,1.935,0.752,1.986,1.797c2.32,46.35-6.553,72.568-26.371,77.924c-7.492,2.025-19.08,4.116-33.513,6.048
						C1836.615,647.358,1836.53,647.363,1836.446,647.363z"/>
					<path style="fill:#BDD0FB;" d="M1633.378,604.479c-0.969,0-1.795-0.739-1.885-1.723c-0.848-9.362-1.35-20.689-1.493-33.665
						c-0.011-1.046,0.828-1.903,1.874-1.915c1.097,0.056,1.903,0.828,1.915,1.874c0.141,12.876,0.638,24.102,1.478,33.364
						c0.094,1.042-0.674,1.963-1.716,2.058C1633.493,604.476,1633.435,604.479,1633.378,604.479z"/>
					<path style="fill:#BDD0FB;" d="M1632.444,527.869c-0.019,0-0.038,0-0.057-0.001c-1.046-0.031-1.868-0.904-1.837-1.95
						c0.184-6.152,0.387-11.893,0.566-17c0.202-5.727,0.375-10.656,0.464-14.473c0.529-22.692,30.834-28.738,76.172-30.836
						c1.056-0.052,1.931,0.76,1.98,1.804c0.048,1.045-0.76,1.932-1.805,1.98c-51.144,2.365-72.167,10.229-72.562,27.14
						c-0.089,3.828-0.263,8.773-0.465,14.517c-0.179,5.102-0.381,10.836-0.565,16.98
						C1634.306,527.058,1633.464,527.869,1632.444,527.869z"/>
					<path style="fill:#BDD0FB;" d="M1732.708,595.882c-2.045,0-3.73-1.63-3.786-3.687l-1.731-64.614
						c-0.056-2.131,0.974-4.099,2.755-5.267c1.781-1.168,3.997-1.328,5.929-0.424l63.827,29.854c2.106,0.984,3.453,3.04,3.515,5.365
						c0.061,2.324-1.176,4.449-3.228,5.544l-56.342,30.036c-1.849,0.984-4.142,0.284-5.125-1.56
						c-0.985-1.846-0.286-4.141,1.561-5.125l53.736-28.648l-58.989-27.589l1.667,62.225c0.056,2.092-1.594,3.833-3.686,3.889
						C1732.776,595.882,1732.742,595.882,1732.708,595.882z"/>
				</g>
				<path style="fill:#7D97F4;" d="M1625.144,953.417v113.837c0,23.526,19.072,42.598,42.598,42.598h204.809
					c23.526,0,42.598-19.072,42.598-42.598V941.959c0-24.462-20.554-43.898-44.978-42.532l-204.809,11.458
					C1642.797,912.148,1625.144,930.815,1625.144,953.417z"/>
				<path style="fill:#7D97F4;" d="M1625.144,694.943v24.697c0,4.94,19.072,8.946,42.598,8.946h202.177
					c24.53,0,43.991-4.34,42.522-9.481l-7.056-24.697c-1.35-4.724-19.986-8.41-42.522-8.41h-195.12
					C1644.216,685.998,1625.144,690.003,1625.144,694.943z"/>
				<path style="fill:#7D97F4;" d="M1625.144,765.924v24.697c0,4.94,19.072,8.946,42.598,8.946h202.177
					c24.53,0,43.991-4.34,42.522-9.481l-7.056-24.697c-1.35-4.724-19.986-8.41-42.522-8.41h-195.12
					C1644.216,756.978,1625.144,760.983,1625.144,765.924z"/>
				<path style="fill:#7D97F4;" d="M1625.144,836.904v24.697c0,4.94,19.072,8.945,42.598,8.945h202.177
					c24.53,0,43.991-4.339,42.522-9.481l-7.056-24.697c-1.35-4.724-19.986-8.41-42.522-8.41h-195.12
					C1644.216,827.958,1625.144,831.964,1625.144,836.904z"/>
			</g>
			
				<linearGradient id="SVGID_00000166668258071623515560000009765003477001794193_" gradientUnits="userSpaceOnUse" x1="1363.0375" y1="1126.6523" x2="1289.038" y2="1462.6514">
				<stop  offset="0" style="stop-color:#09005D"/>
				<stop  offset="1" style="stop-color:#1A0F91"/>
			</linearGradient>
			<path style="fill:url(#SVGID_00000166668258071623515560000009765003477001794193_);" d="M1562.48,1518.431H999.35
				c-15.299,0-26.787-10.891-23.829-22.589l7.226-28.577c2.173-8.594,11.628-14.904,22.857-15.254l542.878-16.94
				c11.732-0.366,22.12,5.862,24.676,14.793l13.026,45.517C1589.569,1507.206,1578.026,1518.431,1562.48,1518.431z"/>
			<path style="fill:#91B3FA;" d="M1302.492,1459.944c-1.106,0-2.01-0.889-2.027-1.998c-0.016-1.121,0.878-2.042,1.998-2.058
				l23.264-0.339c0.01,0,0.021,0,0.031,0c1.106,0,2.01,0.889,2.027,1.998c0.016,1.121-0.878,2.042-1.998,2.058l-23.264,0.339
				C1302.513,1459.944,1302.503,1459.944,1302.492,1459.944z"/>
			<path style="fill:#91B3FA;" d="M996.37,1502.869c-0.107,0-0.214-0.008-0.323-0.026c-1.106-0.176-1.86-1.216-1.682-2.321
				l3.318-20.785c1.797-11.263,11.379-19.557,22.782-19.726l246.74-3.606c1.076,0.03,2.041,0.877,2.058,1.998
				c0.016,1.121-0.878,2.042-1.998,2.058l-246.74,3.606c-9.428,0.139-17.35,6.997-18.837,16.307l-3.318,20.785
				C998.211,1502.158,997.349,1502.869,996.37,1502.869z"/>
		</g>
		<g>
			<path style="fill:#BDD0FB;" d="M2098.183,694.944c81.779,29.289,161.11,102.609,150.064,196.21
				c-9.393,79.596-100.727,103.092-156.134,111.481c-15.454,2.339-29.496,10.26-39.524,22.25
				c-23.997,28.69-75.404,76.507-131.819,44.677c-4.109-2.318-2.271-8.63,2.443-8.443c14.997,0.595,36.282-1.563,50.768-15.656
				c19.73-19.196,12.586-52.499-12.911-62.872c-48.255-19.631-139.309-73.081-127.519-194.208
				C1849.495,624.568,2098.183,694.944,2098.183,694.944z"/>
			<path style="fill:#FFFFFF;" d="M2048.384,825.591c0,0-4.027-54.768-58.62-45.716c-51.717,8.575-35.16,79.333,37.706,124.364
				c7.9,4.882,17.684,5.599,26.23,1.966c31.993-13.603,106.509-52.562,65.409-106.667
				C2092.567,764.597,2048.384,825.591,2048.384,825.591z"/>
			
				<linearGradient id="SVGID_00000166677034404657709130000014596119007259680174_" gradientUnits="userSpaceOnUse" x1="2057.8081" y1="760.9802" x2="2220.9836" y2="760.9802">
				<stop  offset="0" style="stop-color:#DAE3FE"/>
				<stop  offset="1" style="stop-color:#E9EFFD"/>
			</linearGradient>
			<path style="fill:url(#SVGID_00000166677034404657709130000014596119007259680174_);" d="M2216.929,822.231
				c-1.578,0-3.079-0.927-3.735-2.472c-15.944-37.528-55.314-87.43-152.326-112.044c-2.172-0.551-3.486-2.757-2.934-4.93
				c0.551-2.171,2.76-3.478,4.928-2.933c55.324,14.038,127.61,45.684,157.798,116.733c0.875,2.062-0.085,4.444-2.147,5.32
				C2217.995,822.126,2217.458,822.231,2216.929,822.231z"/>
			
				<linearGradient id="SVGID_00000038379994317437483650000015868119624935485074_" gradientUnits="userSpaceOnUse" x1="2224.8628" y1="878.5361" x2="2233.6267" y2="878.5361">
				<stop  offset="0" style="stop-color:#DAE3FE"/>
				<stop  offset="1" style="stop-color:#E9EFFD"/>
			</linearGradient>
			<path style="fill:url(#SVGID_00000038379994317437483650000015868119624935485074_);" d="M2228.925,895.21
				c-0.194,0-0.391-0.014-0.59-0.042c-2.215-0.323-3.75-2.381-3.429-4.595c0.016-0.111,1.344-9.665,0.011-24.289
				c-0.203-2.232,1.44-4.205,3.671-4.409c2.244-0.18,4.205,1.44,4.408,3.672c1.428,15.674,0,25.768-0.061,26.19
				C2232.639,893.756,2230.906,895.21,2228.925,895.21z"/>
		</g>
		<g>
			
				<linearGradient id="SVGID_00000145738720024227008830000008881937484222617488_" gradientUnits="userSpaceOnUse" x1="1793.5961" y1="957.354" x2="1856.2628" y2="1107.354">
				<stop  offset="0" style="stop-color:#09005D"/>
				<stop  offset="1" style="stop-color:#1A0F91"/>
			</linearGradient>
			<path style="fill:url(#SVGID_00000145738720024227008830000008881937484222617488_);" d="M1810.815,990.602
				c0,0,11.243,5.469,13.311,11.751c1.659,5.041,14.091,5.69,15.319,15.604c0.634,5.118,4.422,9.218,9.52,9.999
				c12.698,1.946,32.265,8.54,35.396,30.585c2.39,16.827-6.189,23.208-15.191,25.416c-6.612,1.622-11.006,8.054-9.669,14.729
				c1.283,6.403-0.63,13.805-11.723,19.658c-24.857,13.116-49.681-31.074-49.681-31.074l-5.087-77.159L1810.815,990.602z"/>
			
				<linearGradient id="SVGID_00000183931908212466722440000005401417673868030385_" gradientUnits="userSpaceOnUse" x1="-2063.8853" y1="1821.1785" x2="-2080.5522" y2="1627.1779" gradientTransform="matrix(1 0 0 1 4020.2104 0)">
				<stop  offset="0" style="stop-color:#09005D"/>
				<stop  offset="1" style="stop-color:#1A0F91"/>
			</linearGradient>
			<path style="fill:url(#SVGID_00000183931908212466722440000005401417673868030385_);" d="M1912.989,1474.413l1.609,13.224
				c0.305,2.509,2.28,4.492,4.791,4.779c4.239,0.484,11.042,0.981,17.698,0.277c2.922-0.309,4.818-3.267,3.928-6.067
				c-1.623-5.105-4.591-12.768-8.871-17.277h-14.669C1914.763,1469.348,1912.662,1471.72,1912.989,1474.413z"/>
			
				<linearGradient id="SVGID_00000089538700516336104340000005295516266729821836_" gradientUnits="userSpaceOnUse" x1="1983.4354" y1="1266.0972" x2="1908.7688" y2="1321.4305">
				<stop  offset="0" style="stop-color:#FF928E"/>
				<stop  offset="1" style="stop-color:#FEB3B1"/>
			</linearGradient>
			<path style="fill:url(#SVGID_00000089538700516336104340000005295516266729821836_);" d="M1798.096,1319.508l-2.476,14.564
				c0,0,8.291,83.984,9.766,117.578c0.231,5.267-1.131,10.472-3.895,14.96l-14.417,23.412l36.641-21.622l0.73-4.471l-5.998-8.247
				l7.857-94.083c0.461-5.527-0.679-11.07-3.285-15.965l-7.579-14.238L1798.096,1319.508z"/>
			
				<linearGradient id="SVGID_00000070090731187193713360000015284435766882216093_" gradientUnits="userSpaceOnUse" x1="-2185.5444" y1="1831.6289" x2="-2202.2112" y2="1637.6293" gradientTransform="matrix(1 0 0 1 4020.2104 0)">
				<stop  offset="0" style="stop-color:#09005D"/>
				<stop  offset="1" style="stop-color:#1A0F91"/>
			</linearGradient>
			<path style="fill:url(#SVGID_00000070090731187193713360000015284435766882216093_);" d="M1784.661,1493.414h11.693
				c2.189,0,4.253-1.005,5.588-2.739c3.645-4.737,11.197-13.977,14.809-14.219c4.861-0.325,4.24,16.958,4.24,16.958h2.725
				l3.452-21.476c0.868-5.403-1.819-10.756-6.671-13.288l0,0c0,0-1.111,8.219-7.137,11.854
				c-6.026,3.635-24.521,16.654-24.521,16.654s-2.266-0.323-4.752,0.126C1780.396,1487.95,1780.912,1493.414,1784.661,1493.414z"/>
			
				<linearGradient id="SVGID_00000077314655803029315410000017275499004789799575_" gradientUnits="userSpaceOnUse" x1="2004.9003" y1="1220.9772" x2="1950.9003" y2="1308.3104">
				<stop  offset="0" style="stop-color:#FF928E"/>
				<stop  offset="1" style="stop-color:#FEB3B1"/>
			</linearGradient>
			<path style="fill:url(#SVGID_00000077314655803029315410000017275499004789799575_);" d="M1848.283,1326.425
				c0,0,48.573,92.138,56.294,113.175c7.721,21.036,10.426,38.586,10.53,40.248c0.161,2.597,3.391,5.087,12.295,5.087
				c4.594,0,6.845-1.842,7.947-3.624c0.94-1.521,0.989-3.424,0.197-5.027c-2.81-5.686-11.726-23.858-15.029-32.1
				c-3.943-9.84-12.424-54.436-17.075-69.941c-4.651-15.505-9.909-32.325-30.164-47.817
				C1873.276,1326.425,1859.372,1312.807,1848.283,1326.425z"/>
			
				<linearGradient id="SVGID_00000078022094927265498980000002184850463081085358_" gradientUnits="userSpaceOnUse" x1="-2225.5767" y1="1114.6396" x2="-2205.6941" y2="1299.1067" gradientTransform="matrix(1 0 0 1 4020.2104 0)">
				<stop  offset="0" style="stop-color:#FE7062"/>
				<stop  offset="1" style="stop-color:#FF928E"/>
			</linearGradient>
			<path style="fill:url(#SVGID_00000078022094927265498980000002184850463081085358_);" d="M1817.598,1175.452
				c-12.53-53.093,19.212-83.122,19.212-83.122c-12.844-12.329-32.46-20.35-44.879-24.517c-7.385-2.478-15.493-0.711-21.244,4.544
				c-9.972,9.112-23.774,24.418-21.086,37.383c2.421,11.678,24.475,69.952,24.475,69.952S1794.47,1189.343,1817.598,1175.452z"/>
			
				<linearGradient id="SVGID_00000107586978082569452760000017168860576763255471_" gradientUnits="userSpaceOnUse" x1="1780.4595" y1="1305.8479" x2="1615.126" y2="1501.848">
				<stop  offset="0" style="stop-color:#FE7062"/>
				<stop  offset="1" style="stop-color:#FF928E"/>
			</linearGradient>
			<path style="fill:url(#SVGID_00000107586978082569452760000017168860576763255471_);" d="M1845.378,1201.736
				c-5.1-15.361-27.78-26.285-27.78-26.285c-23.128,13.891-43.522,4.24-43.522,4.24s-4.574,17.481-1.417,33.727
				c3.156,16.246,22.961,120.653,22.961,120.653c31.205,6.323,79.198-6.361,79.198-6.361
				C1854.942,1292.421,1850.477,1217.098,1845.378,1201.736z"/>
			
				<linearGradient id="SVGID_00000021809602695474008820000002967547846902942376_" gradientUnits="userSpaceOnUse" x1="1786.9692" y1="1009.1757" x2="1808.3026" y2="1106.509">
				<stop  offset="0" style="stop-color:#FF928E"/>
				<stop  offset="1" style="stop-color:#FEB3B1"/>
			</linearGradient>
			<path style="fill:url(#SVGID_00000021809602695474008820000002967547846902942376_);" d="M1803.054,1029.271l10.187,45.757
				c0.975,4.03-2.699,3.371-6.774,2.602c-6.673-1.258-15.274-3.849-18.149-9.042c-0.293-0.528-0.439-1.126-0.521-1.724
				l-4.376-31.729c-0.347-2.517,1.013-4.96,3.337-5.99l8.445-3.745C1798.454,1023.959,1802.218,1025.814,1803.054,1029.271z"/>
			<g>
				
					<linearGradient id="SVGID_00000154397122082447062860000007001015831664788102_" gradientUnits="userSpaceOnUse" x1="-2335.7034" y1="501.378" x2="-2347.7034" y2="564.7112" gradientTransform="matrix(0.9809 -0.1943 0.1943 0.9809 3979.4456 -238.991)">
					<stop  offset="0" style="stop-color:#FF928E"/>
					<stop  offset="1" style="stop-color:#FEB3B1"/>
				</linearGradient>
				<path style="fill:url(#SVGID_00000154397122082447062860000007001015831664788102_);" d="M1783.542,987.559
					c0,0-10.845,7.341-15.505,26.037c-4.66,18.695,2.913,25.401,10.676,24.991c7.763-0.411,19.018-2.812,28.771-16.224
					C1817.237,1008.95,1797.754,978.588,1783.542,987.559z"/>
				
					<linearGradient id="SVGID_00000117638785318983567000000002025423039421307789_" gradientUnits="userSpaceOnUse" x1="1782.2839" y1="962.0798" x2="1844.9507" y2="1112.0798">
					<stop  offset="0" style="stop-color:#09005D"/>
					<stop  offset="1" style="stop-color:#1A0F91"/>
				</linearGradient>
				<path style="fill:url(#SVGID_00000117638785318983567000000002025423039421307789_);" d="M1797.65,1014.821
					c0,0,3.974-26.788-18.268-22.691l-4.497,4.682c0,0-10.887-12.26,1.161-21.528c12.047-9.268,28.766-6.894,38.015,9.977
					c9.249,16.872,12.606,28.728,4.854,39.212c-7.753,10.484-13.584,1.492-13.584,1.492s3.556-9.074,0.605-12.968
					c-2.95-3.893-6.756,2.264-6.756,2.264L1797.65,1014.821z"/>
				
					<linearGradient id="SVGID_00000030458752148150067640000008307279303488522916_" gradientUnits="userSpaceOnUse" x1="-2317.8958" y1="504.752" x2="-2329.896" y2="568.0854" gradientTransform="matrix(0.9809 -0.1943 0.1943 0.9809 3979.4456 -238.991)">
					<stop  offset="0" style="stop-color:#FF928E"/>
					<stop  offset="1" style="stop-color:#FEB3B1"/>
				</linearGradient>
				<path style="fill:url(#SVGID_00000030458752148150067640000008307279303488522916_);" d="M1800.69,1017.116
					c0,0,1.962-13.782,9.001-9.842c7.039,3.94-2.537,12.875-6.377,15.915L1800.69,1017.116z"/>
			</g>
			
				<linearGradient id="SVGID_00000163787102614857372100000010341909747667573145_" gradientUnits="userSpaceOnUse" x1="1834.4994" y1="1025.0625" x2="1833.166" y2="1099.7291">
				<stop  offset="0" style="stop-color:#FF928E"/>
				<stop  offset="1" style="stop-color:#FEB3B1"/>
			</linearGradient>
			<path style="fill:url(#SVGID_00000163787102614857372100000010341909747667573145_);" d="M1836.955,1093.11
				c0,0,26.213,34.629,21.623,71.355c-4.325,34.596-48.464,38.39-48.464,38.39l-5.666-4.784c0,0,33.047-22.794,34.669-35.768
				c2.999-23.988-20.282-38.646-20.282-38.646S1823.981,1097.435,1836.955,1093.11z"/>
			
				<linearGradient id="SVGID_00000099650529725417451800000004314428714660952472_" gradientUnits="userSpaceOnUse" x1="1624.4274" y1="1364.7148" x2="1697.9154" y2="1224.1849">
				<stop  offset="0" style="stop-color:#09005D"/>
				<stop  offset="1" style="stop-color:#1A0F91"/>
			</linearGradient>
			<path style="fill:url(#SVGID_00000099650529725417451800000004314428714660952472_);" d="M1728.616,1356.772h-116.61
				c-4.668,0-8.935-2.925-10.616-7.28l-29.531-76.433c-1.354-3.501-0.893-7.441,1.23-10.538c2.123-3.098,5.632-4.945,9.386-4.945
				h179.293l-25.448,93.31C1735.375,1354.352,1732.207,1356.772,1728.616,1356.772z M1582.476,1261.632
				c-2.453,0-4.654,1.161-6.041,3.183c-1.387,2.024-1.676,4.496-0.792,6.783l29.531,76.433c1.083,2.802,3.829,4.686,6.834,4.686
				h116.61c1.767,0,3.325-1.19,3.791-2.896l24.052-88.189H1582.476z"/>
			
				<linearGradient id="SVGID_00000065046775237750285080000001914475787724780440_" gradientUnits="userSpaceOnUse" x1="1760.5485" y1="1260.6346" x2="1792.469" y2="1199.5938">
				<stop  offset="0" style="stop-color:#09005D"/>
				<stop  offset="1" style="stop-color:#1A0F91"/>
			</linearGradient>
			<polygon style="fill:url(#SVGID_00000065046775237750285080000001914475787724780440_);" points="1761.013,1260.317 
				1757.215,1258.891 1777.118,1205.816 1799.994,1203.529 1800.398,1207.565 1780.031,1209.603 			"/>
			
				<linearGradient id="SVGID_00000062172397647545976240000007788625398775617440_" gradientUnits="userSpaceOnUse" x1="1795.5271" y1="1024.3667" x2="1794.1937" y2="1099.0332">
				<stop  offset="0" style="stop-color:#FF928E"/>
				<stop  offset="1" style="stop-color:#FEB3B1"/>
			</linearGradient>
			<path style="fill:url(#SVGID_00000062172397647545976240000007788625398775617440_);" d="M1781.582,1194.779h30.623l-0.979,7.039
				c0,0-1.768,14.147-10.61,8.842c-8.842-5.305-21.221,3.537-26.526,3.537C1767.713,1214.197,1782.001,1194.813,1781.582,1194.779z"
				/>
			
				<linearGradient id="SVGID_00000140723051349583713560000000671509348843391377_" gradientUnits="userSpaceOnUse" x1="1660.9537" y1="1489.8109" x2="1731.936" y2="1354.073">
				<stop  offset="0" style="stop-color:#09005D"/>
				<stop  offset="1" style="stop-color:#1A0F91"/>
			</linearGradient>
			<path style="fill:url(#SVGID_00000140723051349583713560000000671509348843391377_);" d="M1724.517,1471.371H1627.5
				c-3.008,0-5.669-1.806-6.78-4.603c-1.11-2.794-0.414-5.933,1.775-7.997l104.91-105.457c0.79-0.792,2.076-0.798,2.868-0.008
				c0.794,0.79,0.798,2.074,0.008,2.868l-104.957,105.502c-1.048,0.99-1.342,2.317-0.834,3.595c0.508,1.279,1.634,2.044,3.01,2.044
				h97.017c1.12,0,2.028,0.907,2.028,2.028S1725.637,1471.371,1724.517,1471.371z"/>
			
				<linearGradient id="SVGID_00000007389455446163285460000012579327311630981517_" gradientUnits="userSpaceOnUse" x1="1649.8002" y1="1352.0337" x2="1683.8181" y2="1286.9819">
				<stop  offset="0" style="stop-color:#09005D"/>
				<stop  offset="1" style="stop-color:#1A0F91"/>
			</linearGradient>
			<path style="fill:url(#SVGID_00000007389455446163285460000012579327311630981517_);" d="M1741.639,1321.536h-149.66
				c-1.12,0-2.028-0.907-2.028-2.028s0.908-2.028,2.028-2.028h149.66c1.12,0,2.028,0.907,2.028,2.028
				S1742.759,1321.536,1741.639,1321.536z"/>
			
				<linearGradient id="SVGID_00000079445438538265519840000004176722350922760860_" gradientUnits="userSpaceOnUse" x1="1646.8218" y1="1330.1755" x2="1684.5872" y2="1257.9575">
				<stop  offset="0" style="stop-color:#09005D"/>
				<stop  offset="1" style="stop-color:#1A0F91"/>
			</linearGradient>
			<path style="fill:url(#SVGID_00000079445438538265519840000004176722350922760860_);" d="M1749.26,1296.095h-167.111
				c-1.12,0-2.028-0.907-2.028-2.028c0-1.121,0.908-2.028,2.028-2.028h167.111c1.12,0,2.028,0.907,2.028,2.028
				C1751.288,1295.188,1750.38,1296.095,1749.26,1296.095z"/>
			
				<linearGradient id="SVGID_00000073691144001211204370000012213695802297776058_" gradientUnits="userSpaceOnUse" x1="1598.8533" y1="1342.554" x2="1635.3877" y2="1272.6897">
				<stop  offset="0" style="stop-color:#09005D"/>
				<stop  offset="1" style="stop-color:#1A0F91"/>
			</linearGradient>
			<path style="fill:url(#SVGID_00000073691144001211204370000012213695802297776058_);" d="M1626.66,1356.806
				c-0.102,0-0.204-0.008-0.307-0.024c-1.953-0.309-1.989-0.315-11.448-49.155c-0.092-0.473-9.161-47.375-9.097-48.181l2.022,0.158
				l1.54,1.321l-1.54-1.321l2.008-0.275c0.117,0.755,16.502,87.462,18.544,94.289c0.303,0.454,0.423,1.028,0.285,1.6
				C1628.445,1356.145,1627.592,1356.806,1626.66,1356.806z"/>
			
				<linearGradient id="SVGID_00000181063560769273881390000000223194747344179122_" gradientUnits="userSpaceOnUse" x1="1630.5776" y1="1346.3269" x2="1671.5262" y2="1268.0217">
				<stop  offset="0" style="stop-color:#09005D"/>
				<stop  offset="1" style="stop-color:#1A0F91"/>
			</linearGradient>
			<path style="fill:url(#SVGID_00000181063560769273881390000000223194747344179122_);" d="M1651.052,1356.772
				c-1.12,0-2.028-0.907-2.028-2.028v-95.14c0-1.121,0.908-2.028,2.028-2.028c1.12,0,2.028,0.907,2.028,2.028v95.14
				C1653.08,1355.865,1652.172,1356.772,1651.052,1356.772z"/>
			
				<linearGradient id="SVGID_00000125595617570162962980000004697249663416224693_" gradientUnits="userSpaceOnUse" x1="1666.267" y1="1347.7855" x2="1707.6094" y2="1268.7273">
				<stop  offset="0" style="stop-color:#09005D"/>
				<stop  offset="1" style="stop-color:#1A0F91"/>
			</linearGradient>
			<path style="fill:url(#SVGID_00000125595617570162962980000004697249663416224693_);" d="M1683.955,1356.772
				c-0.044,0-0.087-0.002-0.132-0.004c-1.118-0.071-1.966-1.036-1.894-2.155l5.968-92.978c0.073-1.119,1.043-1.933,2.154-1.893
				c1.118,0.071,1.966,1.036,1.894,2.155l-5.968,92.978C1685.907,1355.949,1685.015,1356.772,1683.955,1356.772z"/>
			
				<linearGradient id="SVGID_00000078034746729932988200000007326144197169087117_" gradientUnits="userSpaceOnUse" x1="1696.693" y1="1350.7648" x2="1742.283" y2="1263.584">
				<stop  offset="0" style="stop-color:#09005D"/>
				<stop  offset="1" style="stop-color:#1A0F91"/>
			</linearGradient>
			<path style="fill:url(#SVGID_00000078034746729932988200000007326144197169087117_);" d="M1708.684,1356.772
				c-0.149,0-0.3-0.016-0.452-0.049c-1.092-0.25-1.776-1.335-1.528-2.428l21.612-95.14c0.247-1.091,1.336-1.774,2.427-1.529
				c1.092,0.25,1.776,1.335,1.528,2.428l-21.612,95.14C1710.446,1356.135,1709.61,1356.772,1708.684,1356.772z"/>
			<g>
				
					<linearGradient id="SVGID_00000084531671588268469260000013997195638212145300_" gradientUnits="userSpaceOnUse" x1="1331.9744" y1="1245.2196" x2="1352.0629" y2="1232.4744" gradientTransform="matrix(0.9659 0.2588 -0.2588 0.9659 654.2761 -63.0794)">
					<stop  offset="0" style="stop-color:#09005D"/>
					<stop  offset="1" style="stop-color:#1A0F91"/>
				</linearGradient>
				<path style="fill:url(#SVGID_00000084531671588268469260000013997195638212145300_);" d="M1638.328,1489.247
					c-4.644,4.644-12.174,4.644-16.818,0c-4.644-4.644-4.644-12.174,0-16.818c4.644-4.644,12.174-4.644,16.818,0
					C1642.972,1477.072,1642.972,1484.602,1638.328,1489.247z"/>
				<circle style="fill:#7D97F4;" cx="1629.918" cy="1480.837" r="6.487"/>
			</g>
			<g>
				
					<linearGradient id="SVGID_00000172420846538322261340000017102319389664328380_" gradientUnits="userSpaceOnUse" x1="1415.5205" y1="1222.8346" x2="1435.609" y2="1210.0892" gradientTransform="matrix(0.9659 0.2588 -0.2588 0.9659 654.2761 -63.0794)">
					<stop  offset="0" style="stop-color:#09005D"/>
					<stop  offset="1" style="stop-color:#1A0F91"/>
				</linearGradient>
				<path style="fill:url(#SVGID_00000172420846538322261340000017102319389664328380_);" d="M1724.818,1489.247
					c-4.644,4.644-12.174,4.644-16.818,0c-4.644-4.644-4.644-12.174,0-16.818c4.644-4.644,12.174-4.644,16.818,0
					C1729.462,1477.072,1729.462,1484.602,1724.818,1489.247z"/>
				<path style="fill:#7D97F4;" d="M1722.896,1480.837c0,3.583-2.904,6.487-6.487,6.487c-3.583,0-6.487-2.904-6.487-6.487
					c0-3.583,2.904-6.487,6.487-6.487C1719.991,1474.351,1722.896,1477.255,1722.896,1480.837z"/>
			</g>
		</g>
		<g>
			<path style="fill:#BDD0FB;" d="M1046.461,1299.328c-11.659-43.785-36.517-79.449-66.923-101.194
				c-27.181-19.439-46.056-48.555-52.009-81.404c-0.626-3.453-1.4-6.923-2.325-10.399c-14.022-52.659-57.655-86.756-97.456-76.157
				c-39.801,10.598-60.699,61.879-46.677,114.538c2.867,10.768,6.974,20.757,12.032,29.745
				c16.144,28.686,21.408,62.396,13.474,94.357c-7.09,28.562-7.055,61.118,1.686,93.944c13.037,48.959,42.576,87.766,77.922,108.314
				c13.37,7.772,25.278,17.924,34.969,29.958c16.105,19.999,39.644,30.189,61.99,24.239c24.106-6.419,40.074-29.824,42.462-57.934
				c1.351-15.907,5.817-31.343,12.595-45.811C1054.2,1387.37,1058.249,1343.597,1046.461,1299.328z"/>
			<path style="fill:#91B3FA;" d="M856.602,1082.48c14.467,33.418,27.848,67.273,40.876,101.268
				c3.261,8.497,6.384,17.046,9.536,25.584l4.725,12.809l4.618,12.848c3.045,8.578,6.209,17.113,9.157,25.725l8.846,25.835
				c5.677,17.298,11.501,34.548,16.857,51.951c2.69,8.697,5.549,17.341,8.062,26.093l7.66,26.217
				c9.859,35.057,18.842,70.378,26.019,106.084l-1.536,0.325l-6.388-26.511l-1.582-6.629l-1.747-6.589l-3.52-13.171l-3.494-13.175
				c-1.157-4.393-2.477-8.744-3.707-13.118c-2.519-8.732-4.969-17.483-7.544-26.198c-10.529-34.796-21.519-69.452-33.223-103.878
				c-5.984-17.168-11.82-34.385-17.923-51.513l-4.542-12.857l-4.65-12.82c-3.095-8.548-6.19-17.097-9.371-25.614
				c-6.217-17.088-12.556-34.133-19.035-51.125c-6.389-17.026-12.941-33.997-19.542-50.939L856.602,1082.48z"/>
		</g>
		<g>
			<path style="fill:#91B3FA;" d="M932.003,1356.695c-18.711-27.069-44.429-45.363-70.513-52.792
				c-23.317-6.641-43.345-21.924-55.477-42.914c-1.275-2.206-2.656-4.388-4.141-6.537c-22.503-32.555-60.643-45.191-85.188-28.225
				c-24.545,16.967-26.201,57.112-3.698,89.666c4.601,6.657,9.856,12.479,15.515,17.385c18.06,15.656,29.933,37.403,32.374,61.18
				c2.181,21.248,10.203,43.484,24.232,63.778c20.922,30.267,50.606,49.566,79.765,54.97c11.029,2.044,21.646,6.07,31.214,11.926
				c15.899,9.73,34.46,10.941,48.24,1.415c14.865-10.276,20.008-30.17,14.73-49.961c-2.987-11.199-3.733-22.837-2.664-34.379
				C958.914,1414.962,950.921,1384.063,932.003,1356.695z"/>
			<path style="fill:#7D97F4;" d="M749.217,1254.917c18.079,19.299,35.525,39.162,52.764,59.207
				c4.312,5.009,8.543,10.087,12.79,15.151l6.37,7.598l6.307,7.651c4.184,5.117,8.44,10.175,12.567,15.34l12.382,15.491
				c8.123,10.432,16.334,20.795,24.263,31.379c3.972,5.285,8.046,10.493,11.91,15.859l11.666,16.042
				c15.338,21.545,30.144,43.484,43.813,66.128l-0.968,0.597l-10.871-16.554l-2.708-4.143l-2.811-4.075l-5.637-8.14l-5.62-8.148
				c-1.868-2.719-3.838-5.37-5.752-8.058c-3.864-5.351-7.685-10.732-11.583-16.057c-15.731-21.203-31.743-42.198-48.184-62.86
				c-8.3-10.268-16.511-20.607-24.882-30.818l-6.257-7.675l-6.322-7.623c-4.211-5.085-8.423-10.169-12.685-15.212
				c-8.439-10.157-16.951-20.254-25.546-30.282c-8.542-10.073-17.18-20.067-25.846-30.031L749.217,1254.917z"/>
		</g>
	</g>
</g>
</svg>
